<?xml version="1.0" standalone="no"?>
<!DOCTYPE svg PUBLIC "-//W3C//DTD SVG 20010904//EN"
 "http://www.w3.org/TR/2001/REC-SVG-20010904/DTD/svg10.dtd">
<svg version="1.0" xmlns="http://www.w3.org/2000/svg"
 width="300.000000pt" height="298.000000pt" viewBox="0 0 300.000000 298.000000"
 preserveAspectRatio="xMidYMid meet">
<metadata>
Created by potrace 1.10, written by Peter Selinger 2001-2011
</metadata>
<g transform="translate(0.000000,298.000000) scale(0.100000,-0.100000)"
fill="#000000" stroke="none">
<path d="M968 2467 c-82 -21 -88 -27 -88 -94 0 -46 -11 -41 -37 16 -14 34 -31
55 -54 66 -155 81 -379 -141 -405 -401 -4 -35 -13 -69 -20 -75 -8 -6 -14 -18
-14 -26 0 -36 -125 -532 -195 -772 -42 -145 -74 -265 -72 -268 2 -2 26 1 53 7
86 19 247 40 316 40 43 0 68 4 71 13 4 8 15 1 34 -20 101 -113 287 -72 384 85
23 36 39 34 39 -4 0 -78 77 -144 169 -144 102 0 242 62 281 125 12 19 25 35
30 35 4 0 11 -36 14 -81 l8 -81 26 6 c111 26 463 63 483 51 5 -4 9 -18 9 -32
0 -24 2 -25 33 -19 86 19 151 26 257 31 63 3 135 8 158 10 41 5 44 3 55 -25
12 -33 19 -35 48 -20 41 23 228 71 302 79 43 5 80 10 82 12 7 8 -120 329 -131
329 -12 0 -95 211 -87 223 2 4 15 7 29 7 23 0 24 1 10 23 -8 12 -49 120 -92
240 -61 173 -81 216 -93 213 -40 -12 -151 -18 -151 -8 0 13 35 22 87 22 23 0
44 3 46 8 3 4 -11 48 -29 97 -50 134 -49 125 -19 125 22 0 26 3 20 18 -5 9
-24 59 -43 110 -40 103 -36 101 -143 83 -126 -22 -169 -23 -169 -7 0 12 -6 15
-22 11 -13 -3 -54 -9 -93 -15 -55 -7 -72 -7 -80 4 -8 10 -28 10 -93 3 -67 -8
-86 -7 -92 3 -7 11 -31 11 -137 1 -213 -20 -234 -23 -238 -35 -9 -26 -20 -216
-12 -216 4 0 25 9 47 20 70 36 69 38 69 -131 1 -122 -2 -154 -14 -163 -12 -10
-12 -25 5 -126 11 -63 20 -127 20 -142 0 -16 2 -28 5 -28 3 0 28 11 55 25 28
14 50 22 50 18 0 -13 -125 -283 -131 -283 -3 0 -14 102 -24 227 -12 160 -22
234 -32 250 -9 13 -17 23 -19 23 -2 0 -25 -16 -50 -36 -56 -42 -124 -78 -132
-69 -8 8 26 488 43 595 7 47 11 87 9 89 -4 4 -81 -11 -155 -30 -35 -9 -37 -12
-47 -67 l-9 -57 -3 65 c-1 36 -2 71 -1 78 2 16 -27 13 -121 -11z m102 -40 c0
-80 22 -352 30 -366 5 -10 10 7 14 50 3 35 11 122 18 194 l13 130 63 13 c35 8
65 12 67 10 2 -2 -2 -53 -10 -113 -20 -157 -35 -333 -38 -459 -4 -122 -8 -128
-94 -161 -28 -11 -43 -23 -45 -37 -2 -12 -8 -23 -13 -25 -9 -3 -22 34 -71 202
-15 53 -18 57 -25 35 -4 -14 -7 -46 -8 -72 -1 -26 -6 -81 -12 -123 l-11 -75
-49 0 c-26 0 -60 -5 -74 -10 -25 -10 -27 -9 -22 12 3 13 11 59 17 103 6 44 20
127 30 185 11 58 33 195 50 305 17 110 33 201 35 203 5 6 98 30 118 31 13 1
17 -7 17 -32z m706 -27 c7 -30 13 -56 14 -57 0 -2 -27 -3 -60 -3 l-60 0 0 -57
c0 -32 7 -105 15 -162 8 -57 14 -105 12 -107 -1 -1 -27 -9 -57 -17 -30 -8 -64
-18 -75 -22 -18 -5 -20 -2 -20 42 0 26 -2 105 -3 175 l-2 127 -29 -9 c-15 -4
-38 -13 -50 -20 -13 -6 -25 -9 -28 -6 -3 3 -2 36 3 73 l9 68 145 16 c80 9 151
16 159 15 9 0 20 -23 27 -56z m650 -6 c12 -32 24 -67 29 -76 6 -16 1 -18 -38
-18 -24 0 -58 -3 -74 -6 -28 -5 -29 -8 -24 -47 6 -45 4 -44 104 -34 14 2 23
-12 39 -57 24 -69 19 -76 -56 -76 l-48 0 6 -31 c3 -17 6 -41 6 -52 0 -19 5
-20 68 -14 37 3 74 8 83 12 12 4 21 -12 44 -77 15 -46 30 -89 33 -95 5 -16
-75 -17 -185 -2 -99 13 -113 17 -113 34 0 8 -10 20 -22 26 -13 6 -24 12 -25
13 -2 2 -63 314 -92 471 -5 27 -7 53 -4 57 2 5 25 8 51 9 26 1 76 7 112 14 36
6 69 11 75 10 5 -1 19 -28 31 -61z m-1627 31 c17 -15 39 -50 52 -83 18 -49 20
-70 16 -157 -15 -270 -149 -535 -271 -535 -75 0 -135 144 -144 341 -7 167 27
265 127 372 82 88 162 110 220 62z m1134 -42 c4 -38 7 -89 7 -115 l0 -48 38 0
38 0 -17 103 c-9 56 -16 103 -15 104 4 5 132 20 139 16 4 -2 7 -22 7 -44 0
-52 46 -357 65 -433 9 -32 14 -60 12 -62 -2 -2 -19 1 -38 6 -19 5 -53 14 -76
20 -33 8 -43 15 -43 32 0 11 -5 49 -12 84 l-11 64 -38 0 c-37 0 -37 0 -29 -32
4 -18 11 -53 14 -77 l7 -44 -31 6 c-23 5 -30 3 -30 -9 0 -10 -7 -14 -22 -12
-18 2 -24 11 -28 38 -4 26 -9 34 -23 32 -9 -2 -17 3 -17 10 0 7 -9 101 -19
208 -10 107 -17 196 -16 198 3 4 89 19 116 21 13 1 17 -13 22 -66z m-150 -105
c3 -13 9 -78 13 -145 l7 -123 -32 0 c-17 0 -34 6 -37 13 -8 21 -32 261 -27
270 2 4 19 7 38 7 26 0 34 -5 38 -22z m667 -38 c-36 -12 -80 -12 -80 0 0 6 24
10 53 9 41 -1 47 -3 27 -9z m-417 -248 c4 -30 2 -42 -6 -39 -7 2 -13 26 -15
53 -4 60 13 49 21 -14z m-1568 -202 l26 -90 -30 -117 c-16 -65 -37 -153 -46
-196 -9 -43 -18 -84 -21 -91 -7 -17 64 -46 112 -46 43 0 48 -12 39 -95 l-7
-65 -61 0 c-65 -1 -239 -23 -269 -35 -10 -4 -18 -5 -18 -2 0 3 18 68 39 144
52 182 124 476 156 638 36 177 38 181 47 107 4 -35 19 -104 33 -152z m1394
163 c29 -132 27 -148 -33 -276 -86 -184 -149 -327 -145 -331 2 -1 49 1 103 6
54 5 104 7 111 4 7 -2 17 -48 24 -112 7 -60 15 -120 18 -135 l5 -27 -123 -7
c-117 -7 -254 -26 -291 -40 -19 -8 -23 6 -38 151 -12 112 -16 93 65 269 16 33
56 125 91 203 59 135 61 143 39 138 -19 -5 -99 -39 -126 -53 -5 -3 -18 74 -33
191 -2 19 181 64 266 65 l56 1 11 -47z m256 -48 c83 -21 155 -42 161 -49 6 -6
20 -47 31 -91 l19 -80 -63 -115 c-52 -95 -113 -230 -113 -250 0 -3 48 -6 108
-8 59 -2 110 -6 114 -10 6 -7 58 -201 58 -220 0 -5 -66 -12 -147 -16 -82 -3
-177 -12 -213 -20 -36 -8 -66 -13 -67 -12 0 0 -13 59 -27 130 -14 70 -28 132
-31 136 -4 7 46 118 158 350 18 36 33 68 35 72 2 4 -32 8 -74 10 l-78 3 -23
80 c-37 134 -38 138 -17 132 11 -3 87 -22 169 -42z m-660 -210 c22 -260 23
-405 2 -476 -25 -83 -75 -134 -162 -164 -192 -67 -298 6 -267 185 6 30 24 134
40 230 41 239 38 228 81 240 20 5 51 19 70 30 18 12 35 19 38 17 2 -3 -5 -54
-16 -113 -70 -382 -71 -409 -25 -420 54 -14 114 64 114 146 0 25 -7 117 -15
205 -21 229 -22 221 23 244 20 11 51 31 67 45 17 13 31 23 32 22 1 -1 9 -87
18 -191z m481 148 c3 -16 12 -53 19 -83 8 -30 16 -67 20 -82 5 -26 9 -28 55
-28 28 0 50 -2 50 -3 0 -2 -26 -60 -58 -128 -33 -68 -62 -132 -65 -141 -7 -20
-32 -24 -43 -7 -4 8 -30 9 -80 4 -41 -4 -74 -4 -74 -2 0 7 125 288 149 336 12
22 19 46 17 53 -2 7 -7 34 -10 61 -6 51 9 66 20 20z m575 -50 l96 -6 27 -66
c47 -114 51 -105 -43 -98 l-82 5 7 -46 c4 -26 8 -48 9 -50 2 -2 31 0 64 6 l60
9 19 -56 c10 -31 21 -63 23 -71 3 -11 -12 -17 -64 -23 -49 -7 -67 -13 -63 -23
3 -7 8 -29 12 -49 7 -37 7 -37 48 -32 22 4 61 9 86 13 l45 6 21 -63 c12 -35
29 -80 37 -100 l16 -36 -96 -17 c-53 -9 -130 -28 -171 -42 -41 -13 -76 -23
-77 -22 -1 2 -14 66 -29 143 -21 108 -95 460 -131 619 -3 17 1 18 43 12 26 -4
90 -9 143 -13z m-1744 -75 c-3 -13 -10 -49 -17 -80 -8 -40 -17 -59 -30 -63
-10 -3 -43 -29 -73 -58 -57 -56 -110 -147 -123 -211 l-7 -38 -41 6 c-66 11
-68 17 -40 136 14 58 27 120 31 138 5 29 9 33 27 27 89 -30 162 4 224 105 38
62 58 77 49 38z m232 -55 c7 -27 22 -58 33 -71 16 -16 19 -25 11 -33 -8 -8
-20 -2 -42 22 -25 28 -30 43 -31 82 0 26 4 47 8 47 4 0 14 -21 21 -47z m-21
-80 c16 -16 34 -37 40 -48 50 -101 -6 -328 -104 -428 -109 -111 -256 -106
-314 10 -29 58 -29 187 -1 264 52 137 168 227 297 228 42 1 57 -4 82 -26z
m304 -133 c3 -83 3 -160 1 -171 -7 -24 -51 -45 -66 -30 -14 14 37 366 53 356
4 -2 9 -72 12 -155z m1423 132 c12 -31 -23 -44 -46 -16 -10 12 -10 17 0 23 19
12 40 9 46 -7z m-335 -47 c0 -24 33 -175 45 -207 5 -14 2 -18 -13 -18 -12 0
-24 5 -27 10 -3 6 -33 10 -66 10 -32 0 -59 3 -59 8 0 15 104 222 112 222 4 0
8 -11 8 -25z m357 -179 c-4 -11 -19 -16 -48 -16 -36 0 -40 2 -29 15 7 9 15 13
18 11 2 -3 14 1 25 9 24 17 43 5 34 -19z m-1267 -261 c0 -8 -4 -15 -9 -15 -5
0 -31 -22 -57 -48 -27 -27 -70 -58 -96 -70 -56 -26 -157 -43 -179 -31 -9 4
-19 5 -23 2 -3 -3 -6 -1 -6 5 0 7 -5 12 -12 12 -17 0 -58 49 -58 70 0 9 -6 22
-12 29 -11 11 -9 11 12 1 14 -7 27 -16 30 -19 33 -42 117 -52 210 -26 30 9 60
17 65 18 24 6 93 51 106 68 16 23 29 25 29 4z m1408 -30 c18 -39 15 -55 -10
-56 -48 -3 -77 -9 -197 -43 l-123 -36 -19 21 c-18 21 -24 22 -171 15 -84 -3
-188 -11 -231 -18 -75 -11 -78 -11 -102 12 -24 23 -28 23 -152 16 -134 -7
-169 -10 -268 -26 -83 -14 -84 -14 -83 19 1 29 1 29 102 45 56 8 146 18 201
22 55 4 108 11 118 16 20 10 37 3 37 -16 0 -26 51 -37 115 -26 33 6 105 13
160 15 55 3 123 8 151 10 41 4 54 1 68 -13 9 -10 24 -18 35 -17 27 2 249 55
296 70 56 19 60 18 73 -10z m-2261 -18 c51 -54 174 -76 229 -41 34 23 43 10
13 -19 -38 -37 -99 -62 -151 -61 -46 0 -54 4 -119 55 l-34 27 -160 -14 c-88
-8 -170 -19 -183 -24 -13 -6 -32 -10 -44 -10 -18 0 -19 4 -13 38 9 49 22 62
40 39 13 -18 18 -18 112 -4 54 9 130 17 168 19 39 2 76 9 83 16 19 17 24 16
59 -21z"/>
<path d="M652 2252 c-41 -39 -70 -100 -84 -179 -14 -85 -5 -136 28 -162 24
-19 28 -19 54 -6 68 35 116 319 62 363 -22 17 -26 16 -60 -16z m28 -100 c0
-72 -20 -163 -46 -215 l-17 -31 -18 23 c-40 49 -12 228 43 283 29 29 38 14 38
-60z"/>
<path d="M793 1446 c-37 -31 -74 -114 -76 -171 -3 -77 58 -110 118 -63 37 29
55 76 55 145 0 103 -39 138 -97 89z m32 -150 c0 -77 -12 -94 -58 -82 -36 9
-44 46 -22 97 19 42 40 60 65 56 12 -2 15 -18 15 -71z"/>
</g>
</svg>
