<svg width="18" height="19" viewBox="0 0 18 19" fill="none" xmlns="http://www.w3.org/2000/svg">
<g clip-path="url(#clip0_2005_34)">
<path d="M12.7552 1.78052H5.25693C3.18635 1.78052 1.50781 3.4494 1.50781 5.50808V12.9632C1.50781 15.0219 3.18635 16.6908 5.25693 16.6908H12.7552C14.8258 16.6908 16.5043 15.0219 16.5043 12.9632V5.50808C16.5043 3.4494 14.8258 1.78052 12.7552 1.78052Z" stroke="#57432E" stroke-width="2" stroke-linecap="round" stroke-linejoin="round"/>
<path d="M12.0052 8.76656C12.0978 9.38701 11.9912 10.0207 11.7006 10.5774C11.4101 11.1342 10.9503 11.5856 10.3868 11.8676C9.82331 12.1496 9.18472 12.2478 8.56187 12.1482C7.93902 12.0485 7.36363 11.7561 6.91754 11.3126C6.47145 10.8691 6.17738 10.297 6.07716 9.67773C5.97693 9.05847 6.07566 8.42354 6.35929 7.86328C6.64292 7.30301 7.09701 6.84593 7.65698 6.55704C8.21694 6.26815 8.85427 6.16218 9.47831 6.25418C10.1149 6.34803 10.7042 6.64294 11.1592 7.09535C11.6142 7.54776 11.9108 8.13368 12.0052 8.76656Z" stroke="#57432E" stroke-width="2" stroke-linecap="round" stroke-linejoin="round"/>
<ellipse cx="13.1289" cy="5.13316" rx="1.125" ry="1.11827" fill="white"/>
</g>
<defs>
<clipPath id="clip0_2005_34">
<rect width="17.9958" height="17.8923" fill="white" transform="translate(0.0078125 0.28833)"/>
</clipPath>
</defs>
</svg>
