<svg width="15" height="13" viewBox="0 0 15 13" fill="none" xmlns="http://www.w3.org/2000/svg">
<path d="M14.2902 2.31087C13.7546 2.57913 13.219 2.66855 12.5942 2.75796C13.219 2.40029 13.6653 1.86378 13.8439 1.14844C13.3083 1.50611 12.6834 1.68495 11.9693 1.86378C11.4337 1.32728 10.6303 0.969604 9.82694 0.969604C8.30944 0.969604 6.97047 2.31087 6.97047 3.9204C6.97047 4.18865 6.97047 4.36749 7.05973 4.54633C4.64958 4.45691 2.41796 3.29447 0.989725 1.50611C0.721931 1.9532 0.632666 2.40029 0.632666 3.02622C0.632666 4.00982 1.16826 4.904 1.97164 5.44051C1.52531 5.44051 1.07899 5.26167 0.632666 5.08283V5.08283C0.632666 6.51352 1.61458 7.67596 2.95355 7.94421C2.68576 8.03363 2.41796 8.03363 2.15017 8.03363C1.97164 8.03363 1.79311 8.03363 1.61458 7.94421C1.97164 9.10664 3.04282 10.0008 4.38179 10.0008C3.39988 10.8056 2.15017 11.2527 0.721931 11.2527C0.454137 11.2527 0.275607 11.2527 0.0078125 11.2527C1.34678 12.0574 2.86429 12.5939 4.47105 12.5939C9.82694 12.5939 12.7727 8.12305 12.7727 4.27807C12.7727 4.18865 12.7727 4.00982 12.7727 3.9204C13.3975 3.47331 13.9331 2.9368 14.2902 2.31087Z" fill="#57432E"/>
</svg>
